<mxfile host="app.diagrams.net" agent="Mozilla/5.0 (Windows NT 10.0; Win64; x64) AppleWebKit/537.36 (KHTML, like Gecko) Chrome/136.0.0.0 Safari/537.36" version="27.0.5">
  <diagram name="Page-1" id="CFh9ZYpisEVaMo1DHHcz">
    <mxGraphModel dx="1106" dy="615" grid="1" gridSize="10" guides="1" tooltips="1" connect="1" arrows="1" fold="1" page="1" pageScale="1" pageWidth="850" pageHeight="1100" math="0" shadow="0">
      <root>
        <mxCell id="0" />
        <mxCell id="1" parent="0" />
        <mxCell id="nqLgOkI-we1TswgUboxD-1" value="&lt;div style=&quot;text-align: center;&quot;&gt;&lt;span style=&quot;background-color: transparent; color: light-dark(rgb(0, 0, 0), rgb(255, 255, 255));&quot;&gt;Author&lt;/span&gt;&lt;/div&gt;&lt;div&gt;id(pk)&lt;/div&gt;&lt;div&gt;name&amp;nbsp;&lt;/div&gt;&lt;div&gt;bio&lt;/div&gt;" style="whiteSpace=wrap;html=1;aspect=fixed;align=left;verticalAlign=top;" vertex="1" parent="1">
          <mxGeometry x="50" y="111" width="80" height="80" as="geometry" />
        </mxCell>
        <mxCell id="nqLgOkI-we1TswgUboxD-3" value="" style="endArrow=none;html=1;rounded=0;" edge="1" parent="1">
          <mxGeometry width="50" height="50" relative="1" as="geometry">
            <mxPoint x="50" y="130" as="sourcePoint" />
            <mxPoint x="130" y="130" as="targetPoint" />
          </mxGeometry>
        </mxCell>
        <mxCell id="nqLgOkI-we1TswgUboxD-4" value="Book&lt;div&gt;id (pk)&lt;/div&gt;&lt;div&gt;title&lt;/div&gt;&lt;div&gt;&lt;span style=&quot;background-color: transparent; color: light-dark(rgb(0, 0, 0), rgb(255, 255, 255));&quot;&gt;author_id(fk)&amp;nbsp;&lt;/span&gt;&lt;/div&gt;&lt;div&gt;publisher&lt;/div&gt;&lt;div&gt;publish_year&lt;/div&gt;&lt;div&gt;isbn&lt;/div&gt;&lt;div&gt;copies_available&lt;/div&gt;" style="whiteSpace=wrap;html=1;aspect=fixed;align=left;verticalAlign=top;" vertex="1" parent="1">
          <mxGeometry x="210" y="111" width="129" height="129" as="geometry" />
        </mxCell>
        <mxCell id="nqLgOkI-we1TswgUboxD-5" value="" style="endArrow=none;html=1;rounded=0;entryX=0.984;entryY=0.147;entryDx=0;entryDy=0;entryPerimeter=0;" edge="1" parent="1" target="nqLgOkI-we1TswgUboxD-4">
          <mxGeometry width="50" height="50" relative="1" as="geometry">
            <mxPoint x="210" y="130" as="sourcePoint" />
            <mxPoint x="280" y="130" as="targetPoint" />
          </mxGeometry>
        </mxCell>
        <mxCell id="nqLgOkI-we1TswgUboxD-6" value="" style="endArrow=classic;html=1;rounded=0;entryX=-0.016;entryY=0.07;entryDx=0;entryDy=0;entryPerimeter=0;" edge="1" parent="1" target="nqLgOkI-we1TswgUboxD-4">
          <mxGeometry width="50" height="50" relative="1" as="geometry">
            <mxPoint x="130" y="119" as="sourcePoint" />
            <mxPoint x="207" y="120" as="targetPoint" />
          </mxGeometry>
        </mxCell>
        <mxCell id="nqLgOkI-we1TswgUboxD-10" value="&lt;div style=&quot;text-align: right;&quot;&gt;category&lt;/div&gt;&lt;div&gt;id (pk)&lt;/div&gt;&lt;div&gt;name&lt;/div&gt;" style="whiteSpace=wrap;html=1;aspect=fixed;align=left;verticalAlign=top;" vertex="1" parent="1">
          <mxGeometry x="40" y="370" width="130" height="130" as="geometry" />
        </mxCell>
        <mxCell id="nqLgOkI-we1TswgUboxD-11" value="" style="endArrow=none;html=1;rounded=0;" edge="1" parent="1">
          <mxGeometry width="50" height="50" relative="1" as="geometry">
            <mxPoint x="40" y="390" as="sourcePoint" />
            <mxPoint x="170" y="390" as="targetPoint" />
            <Array as="points">
              <mxPoint x="60" y="390" />
            </Array>
          </mxGeometry>
        </mxCell>
        <mxCell id="nqLgOkI-we1TswgUboxD-12" value="&lt;div style=&quot;text-align: center;&quot;&gt;BookCategory&lt;/div&gt;&lt;div&gt;book_id(pk,fk)&lt;/div&gt;&lt;div&gt;category_id(pk,fk)&lt;/div&gt;" style="whiteSpace=wrap;html=1;aspect=fixed;align=left;verticalAlign=top;" vertex="1" parent="1">
          <mxGeometry x="280" y="370" width="130" height="130" as="geometry" />
        </mxCell>
        <mxCell id="nqLgOkI-we1TswgUboxD-13" value="" style="endArrow=none;html=1;rounded=0;entryX=1.023;entryY=0.154;entryDx=0;entryDy=0;entryPerimeter=0;" edge="1" parent="1" target="nqLgOkI-we1TswgUboxD-12">
          <mxGeometry width="50" height="50" relative="1" as="geometry">
            <mxPoint x="280" y="390" as="sourcePoint" />
            <mxPoint x="400" y="390" as="targetPoint" />
          </mxGeometry>
        </mxCell>
        <mxCell id="nqLgOkI-we1TswgUboxD-14" value="" style="endArrow=classic;startArrow=classic;html=1;rounded=0;" edge="1" parent="1">
          <mxGeometry width="50" height="50" relative="1" as="geometry">
            <mxPoint x="170" y="390" as="sourcePoint" />
            <mxPoint x="280" y="390" as="targetPoint" />
          </mxGeometry>
        </mxCell>
        <mxCell id="nqLgOkI-we1TswgUboxD-28" value="&lt;div style=&quot;text-align: right;&quot;&gt;member&lt;/div&gt;&lt;div&gt;&lt;br&gt;&lt;/div&gt;&lt;div&gt;id(pk)&lt;/div&gt;&lt;div&gt;first_name&lt;/div&gt;&lt;div&gt;last_name&lt;/div&gt;&lt;div&gt;email&lt;/div&gt;&lt;div&gt;phone&lt;/div&gt;&lt;div&gt;address&lt;/div&gt;&lt;div&gt;registration_date&lt;/div&gt;" style="whiteSpace=wrap;html=1;aspect=fixed;align=left;verticalAlign=top;" vertex="1" parent="1">
          <mxGeometry x="40" y="560" width="140" height="140" as="geometry" />
        </mxCell>
        <mxCell id="nqLgOkI-we1TswgUboxD-29" value="" style="endArrow=none;html=1;rounded=0;entryX=0.993;entryY=0.207;entryDx=0;entryDy=0;entryPerimeter=0;" edge="1" parent="1" target="nqLgOkI-we1TswgUboxD-28">
          <mxGeometry width="50" height="50" relative="1" as="geometry">
            <mxPoint x="40" y="590" as="sourcePoint" />
            <mxPoint x="150" y="590" as="targetPoint" />
          </mxGeometry>
        </mxCell>
        <mxCell id="nqLgOkI-we1TswgUboxD-31" value="&lt;div style=&quot;text-align: right;&quot;&gt;loan&lt;/div&gt;&lt;div&gt;id(pk)&lt;/div&gt;&lt;div&gt;book_id&lt;/div&gt;&lt;div&gt;member_id&lt;/div&gt;&lt;div&gt;loan_date&lt;/div&gt;&lt;div&gt;&lt;span style=&quot;background-color: transparent; color: light-dark(rgb(0, 0, 0), rgb(255, 255, 255));&quot;&gt;due_date&lt;/span&gt;&lt;/div&gt;&lt;div&gt;return_date&lt;/div&gt;" style="whiteSpace=wrap;html=1;aspect=fixed;align=left;verticalAlign=top;" vertex="1" parent="1">
          <mxGeometry x="310" y="560" width="140" height="140" as="geometry" />
        </mxCell>
        <mxCell id="nqLgOkI-we1TswgUboxD-32" value="" style="endArrow=none;html=1;rounded=0;entryX=0.986;entryY=0.15;entryDx=0;entryDy=0;entryPerimeter=0;" edge="1" parent="1" target="nqLgOkI-we1TswgUboxD-31">
          <mxGeometry width="50" height="50" relative="1" as="geometry">
            <mxPoint x="310" y="580" as="sourcePoint" />
            <mxPoint x="430" y="580" as="targetPoint" />
          </mxGeometry>
        </mxCell>
        <mxCell id="nqLgOkI-we1TswgUboxD-33" value="" style="endArrow=classic;html=1;rounded=0;" edge="1" parent="1">
          <mxGeometry width="50" height="50" relative="1" as="geometry">
            <mxPoint x="180" y="580" as="sourcePoint" />
            <mxPoint x="310" y="580" as="targetPoint" />
          </mxGeometry>
        </mxCell>
      </root>
    </mxGraphModel>
  </diagram>
</mxfile>
